<svg width="65" height="64" viewBox="0 0 65 64" fill="none" xmlns="http://www.w3.org/2000/svg">
<path d="M32.5993 5.3335C17.8731 5.3335 5.93262 17.5835 5.93262 32.6787C5.93262 44.7621 13.5755 55.0002 24.1707 58.6192C24.3193 58.6515 24.471 58.6675 24.6231 58.6668C25.6112 58.6668 25.9921 57.9406 25.9921 57.3097C25.9921 56.6549 25.9683 54.9406 25.9564 52.6549C25.0743 52.8617 24.1719 52.9695 23.266 52.9764C18.135 52.9764 16.9683 48.9883 16.9683 48.9883C15.754 45.8335 14.004 44.9883 14.004 44.9883C11.6826 43.3573 13.9921 43.3097 14.1707 43.3097H14.1826C16.8612 43.5478 18.266 46.143 18.266 46.143C19.5993 48.4764 21.385 49.1311 22.9802 49.1311C24.035 49.11 25.0735 48.8666 26.0279 48.4168C26.266 46.6549 26.9564 45.4525 27.7183 44.7621C21.8017 44.0716 15.5755 41.7264 15.5755 31.2502C15.5755 28.2621 16.6112 25.8216 18.3136 23.9168C18.0398 23.2264 17.1231 20.4406 18.5755 16.6787C18.7703 16.6321 18.9705 16.6121 19.1707 16.6192C20.135 16.6192 22.3136 16.9883 25.9088 19.4883C30.2773 18.266 34.8975 18.266 39.266 19.4883C42.8612 16.9883 45.0398 16.6192 46.004 16.6192C46.2042 16.6121 46.4045 16.6321 46.5993 16.6787C48.0517 20.4406 47.135 23.2264 46.8612 23.9168C48.5636 25.8335 49.5993 28.274 49.5993 31.2502C49.5993 41.7502 43.3612 44.0597 37.4207 44.7383C38.3731 45.5835 39.2302 47.2502 39.2302 49.7978C39.2302 53.4525 39.1945 56.4049 39.1945 57.2978C39.1945 57.9406 39.5636 58.6668 40.5517 58.6668C40.7116 58.6675 40.8712 58.6516 41.0279 58.6192C51.635 55.0002 59.266 44.7502 59.266 32.6787C59.266 17.5835 47.3255 5.3335 32.5993 5.3335Z" fill="#212433"/>
</svg>
