<svg width="65" height="64" viewBox="0 0 65 64" fill="none" xmlns="http://www.w3.org/2000/svg">
<path d="M32.5998 5.33301C17.8736 5.33301 5.93311 17.583 5.93311 32.6782C5.93311 44.7616 13.576 54.9997 24.1712 58.6187C24.3198 58.651 24.4715 58.667 24.6236 58.6663C25.6117 58.6663 25.9926 57.9402 25.9926 57.3092C25.9926 56.6544 25.9688 54.9402 25.9569 52.6544C25.0748 52.8612 24.1724 52.969 23.2664 52.9759C18.1355 52.9759 16.9688 48.9878 16.9688 48.9878C15.7545 45.833 14.0045 44.9878 14.0045 44.9878C11.6831 43.3568 13.9926 43.3092 14.1712 43.3092H14.1831C16.8617 43.5473 18.2664 46.1425 18.2664 46.1425C19.5998 48.4759 21.3855 49.1306 22.9807 49.1306C24.0355 49.1095 25.074 48.8661 26.0283 48.4163C26.2664 46.6544 26.9569 45.4521 27.7188 44.7616C21.8022 44.0711 15.576 41.7259 15.576 31.2497C15.576 28.2616 16.6117 25.8211 18.3141 23.9163C18.0402 23.2259 17.1236 20.4402 18.576 16.6782C18.7708 16.6316 18.971 16.6116 19.1712 16.6187C20.1355 16.6187 22.3141 16.9878 25.9093 19.4878C30.2778 18.2655 34.8979 18.2655 39.2664 19.4878C42.8617 16.9878 45.0403 16.6187 46.0045 16.6187C46.2047 16.6116 46.405 16.6316 46.5998 16.6782C48.0522 20.4402 47.1355 23.2259 46.8617 23.9163C48.5641 25.833 49.5998 28.2735 49.5998 31.2497C49.5998 41.7497 43.3617 44.0592 37.4212 44.7378C38.3736 45.583 39.2307 47.2497 39.2307 49.7973C39.2307 53.4521 39.195 56.4044 39.195 57.2973C39.195 57.9402 39.5641 58.6663 40.5522 58.6663C40.7121 58.667 40.8717 58.6511 41.0283 58.6187C51.6355 54.9997 59.2664 44.7497 59.2664 32.6782C59.2664 17.583 47.326 5.33301 32.5998 5.33301Z" fill="#F4F4F5"/>
</svg>
