<svg width="132" height="132" viewBox="0 0 132 132" fill="none" xmlns="http://www.w3.org/2000/svg">
<rect width="132" height="132" rx="32" fill="#2D3355"/>
<g clip-path="url(#clip0_1512_10)">
<path d="M66.3673 107.562C65.8178 108.115 64.9255 108.115 64.3714 107.562L42.4447 85.4277C35.1186 78.0305 31 67.9976 31 57.534C31 47.0703 35.1186 37.0374 42.4447 29.6404L47.6106 24.4252C48.16 23.8715 49.0523 23.8715 49.6065 24.4252L71.5425 46.5686C78.8638 53.9656 82.9778 63.9986 82.9778 74.4573C82.9778 84.9162 78.8591 94.9444 71.5331 102.342L66.3673 107.557V107.562Z" fill="#E62E37"/>
<path d="M59.2103 46.573L81.1603 24.4153C81.71 23.8616 82.6023 23.8616 83.1562 24.4153L88.3224 29.6258C91.9572 33.2888 94.8357 37.638 96.8038 42.4273C98.7715 47.2166 99.781 52.3466 99.781 57.5335C99.781 62.7204 98.7715 67.8504 96.8038 72.6397C94.8357 77.4291 91.9572 81.7785 88.3224 85.4413L66.3815 107.585C65.832 108.139 64.9397 108.139 64.3855 107.585L59.2103 102.36C51.8795 94.9632 47.7656 84.9252 47.7656 74.4663C47.7656 64.0076 51.8842 53.9699 59.2103 46.573Z" fill="#F9575E"/>
</g>
<defs>
<clipPath id="clip0_1512_10">
<rect width="69" height="84" fill="white" transform="translate(31 24)"/>
</clipPath>
</defs>
</svg>
