<svg width="156" height="156" viewBox="0 0 156 156" fill="none" xmlns="http://www.w3.org/2000/svg">
<rect width="156" height="156" rx="28" fill="#E3E3E3"/>
<g opacity="0.8">
<rect x="34" y="34" width="87.0698" height="87.0698" rx="16" fill="#6C6C6C"/>
<path d="M109.161 92.7522L99.2773 69.6381C97.4774 65.4068 94.7934 63.0069 91.7304 62.8491C88.6991 62.6912 85.7624 64.8068 83.5205 68.8486L77.5209 79.6163C76.2578 81.8898 74.4579 83.2476 72.5002 83.4055C70.5108 83.595 68.5215 82.5529 66.9111 80.5005L66.2164 79.6163C63.9745 76.806 61.1957 75.4482 58.3538 75.7324C55.5119 76.0166 53.0805 77.9743 51.4701 81.1636L46.0073 92.0576C44.0495 96.0046 44.239 100.583 46.5441 104.309C48.8492 108.035 52.8594 110.277 57.2486 110.277H97.5405C101.772 110.277 105.719 108.162 108.056 104.625C110.455 101.088 110.834 96.6362 109.161 92.7522Z" fill="white"/>
<path d="M61.6378 66.102C67.5323 66.102 72.3107 61.3235 72.3107 55.429C72.3107 49.5345 67.5323 44.7561 61.6378 44.7561C55.7433 44.7561 50.9648 49.5345 50.9648 55.429C50.9648 61.3235 55.7433 66.102 61.6378 66.102Z" fill="white"/>
</g>
</svg>
