<svg width="149" height="180" viewBox="0 0 149 180" fill="none" xmlns="http://www.w3.org/2000/svg">
<path d="M76.3729 179.06C75.1863 180.246 73.2595 180.246 72.0629 179.06L24.7139 131.63C8.89377 115.779 0 94.2798 0 71.8578C0 49.4357 8.89377 27.9365 24.7139 12.0859L35.8692 0.910392C37.0557 -0.27612 38.9825 -0.27612 40.1792 0.910392L87.5484 48.3607C103.358 64.2113 112.242 85.7105 112.242 108.122C112.242 130.534 103.348 152.023 87.5281 167.874L76.3729 179.05V179.06Z" fill="#E62E37"/>
<path d="M60.9178 48.3707L108.317 0.889884C109.504 -0.296628 111.431 -0.296628 112.627 0.889884L123.783 12.0553C131.632 19.9045 137.848 29.2242 142.098 39.487C146.347 49.7499 148.527 60.7428 148.527 71.8575C148.527 82.9722 146.347 93.9652 142.098 104.228C137.848 114.491 131.632 123.811 123.783 131.66L76.4033 179.11C75.2168 180.297 73.29 180.297 72.0933 179.11L60.9178 167.914C45.0875 152.064 36.2039 130.554 36.2039 108.142C36.2039 85.7306 45.0976 64.2212 60.9178 48.3707Z" fill="#F9575E"/>
</svg>
