<svg width="156" height="156" viewBox="0 0 156 156" fill="none" xmlns="http://www.w3.org/2000/svg">
<g clip-path="url(#clip0_16739_22072)">
<mask id="mask0_16739_22072" style="mask-type:luminance" maskUnits="userSpaceOnUse" x="0" y="0" width="156" height="156">
<path d="M78.1522 155.647C120.826 155.647 155.42 120.923 155.42 78.0881C155.42 35.2533 120.826 0.528809 78.1522 0.528809C35.4781 0.528809 0.883911 35.2533 0.883911 78.0881C0.883911 120.923 35.4781 155.647 78.1522 155.647Z" fill="white"/>
</mask>
<g mask="url(#mask0_16739_22072)">
<g filter="url(#filter0_d_16739_22072)">
<path d="M-318.855 131.575C-301.294 151.453 -281.491 169.279 -257.11 178.939C-225.114 191.613 -183.419 185.861 -164.037 157.311C-158.283 148.82 -154.812 138.92 -148.905 130.541C-128.851 102.05 -86.5464 99.2998 -53.8537 111.257C-21.161 123.214 6.21655 146.211 37.5278 161.394C57.0556 170.866 79.5102 177.259 101.362 174.908C124.964 172.382 142.057 153.985 160.396 140.189C177.822 127.08 196.759 113.413 218.523 112.691C237.84 112.05 256.431 122.186 269.45 136.54C282.468 150.894 290.458 169.121 296.254 187.629C317.631 256.011 311.415 328.699 319.785 399.031C323.707 432.135 334.244 463.129 341.69 495.04C349.948 529.942 364.664 562.976 385.071 592.424C401.514 615.992 422.066 636.457 438.398 660.101C466.97 701.477 491.619 761.321 500.306 810.783C508.168 855.55 475.768 901.551 432.855 916.07C394.806 928.944 362.552 912.18 324.638 917.921C302.669 921.241 281.321 928.362 259.247 930.654C232.139 933.468 200.06 927.128 173.198 922.862C138.299 917.327 100.431 894.982 77.3444 868.136C55.4283 842.641 25.0946 824.656 -10.7005 829.856C-21.12 831.366 -31.0302 835.25 -40.8995 838.94C-97.9551 860.286 -229.873 877.913 -264.685 807.029C-288.855 757.796 -248.166 727.454 -222.38 694.55C-196.94 662.087 -212.944 602.889 -240.076 576.619C-278.962 538.92 -324.544 562.294 -353.186 599.534C-408.767 671.805 -416.587 777.756 -372.222 857.477C-357.735 883.507 -336.117 908.079 -307.136 914.583C-283.756 919.836 -259.674 912.562 -236.142 908.055C-140.699 889.776 -41.5376 917.233 54.638 903.355C84.5795 899.03 114.187 890.71 144.433 891.139C178.747 891.621 206.845 903.284 237.506 916.123C267.36 928.644 294.702 915.33 324.843 907.174C347.035 901.169 369.768 897.392 392.704 895.899C403.539 895.194 414.948 894.853 424.273 889.312C438.375 880.945 443.795 863.194 445.481 846.836C448.894 813.803 441.219 781.269 441.822 748.319C442.232 725.703 450.222 709.069 456.263 688.046C469.335 642.55 438.609 578.687 497.584 556.277C518.95 548.163 532.853 526.411 542.581 506.333C562.806 464.616 562.572 412.545 538.443 372.955C516.099 336.308 493.575 310.767 490.004 266.135C486.457 221.781 482.905 177.425 479.35 133.068C475.249 81.7334 471.151 30.3974 467.058 -20.9406L-371.772 -51.9702C-371.221 -51.9702 -364.162 34.4967 -362.804 42.4876C-358.314 69.3866 -351.934 90.7742 -334.665 112.508C-329.608 118.936 -324.345 125.359 -318.855 131.575Z" fill="url(#paint0_linear_16739_22072)"/>
</g>
<g filter="url(#filter1_d_16739_22072)">
<path d="M-329.128 95.2865C-317.04 106.609 -300.486 114.841 -287.087 118.49C-259.036 126.128 -227.034 120.282 -204.258 101.961C-183.77 85.5093 -170.851 61.4189 -147.852 47.6815C-98.8156 18.4146 -51.319 27.9803 -11.918 66.9362C26.8683 105.287 81.3659 158.556 136.87 117.232C153.325 104.987 165.828 88.3003 178.66 72.2713C189.723 58.4458 201.278 40.6013 218.148 33.3742C238.42 24.6899 256.648 41.0126 269.075 56.0838C318.568 116.075 321.009 205.873 373.358 263.367C390.726 282.445 414.644 297.446 440.383 296.964C453.36 296.735 465.922 292.634 478.256 288.574C485.514 286.182 493.06 283.621 498.433 278.18C509.871 266.587 497.263 247.837 496.092 233.93C494.429 214.463 492.978 194.974 491.409 175.502C488.217 135.547 485.023 95.592 481.826 55.6372C481.212 47.9459 473.707 -75.579 471.331 -75.6672L-367.499 -106.697C-372.041 -98.2886 -364.057 -68.6692 -363.155 -58.7216C-361.873 -44.5729 -361.44 -30.3244 -357.53 -16.7103C-349.335 11.9102 -351.483 42.6813 -344.652 70.8377C-342.48 79.9509 -336.673 88.2239 -329.128 95.2865Z" fill="url(#paint1_linear_16739_22072)"/>
</g>
<g filter="url(#filter2_d_16739_22072)">
<path d="M-282.556 136.058C-268.683 144.648 -252.667 149.784 -236.394 149.983C-216.392 150.236 -196.15 142.721 -182.02 128.502C-174.222 120.658 -168.433 111.074 -162.702 101.597C-149.941 80.4032 -138.222 50.8308 -120.978 33.186C-106.788 18.673 -84.6147 6.38693 -64.7824 2.46783C-24.6322 -5.4585 6.69656 9.40117 35.5434 34.4904C63.4653 58.7747 113.69 96.9845 151.902 72.9293C162.767 66.09 170.049 54.885 176.581 43.8034C183.114 32.7218 189.459 21.1585 199.206 12.8091C249.822 -30.4714 303.635 43.5449 323.526 82.73C338.576 112.42 349.206 144.131 362.821 174.509C371.409 193.652 381.98 213.147 399.7 224.299C406.63 228.659 415.124 231.603 422.979 229.311C437.116 225.198 441.547 207.642 443.608 193.005C448.203 160.342 449.415 134.248 446.423 102.014C443.122 66.6658 436.823 31.7289 433.633 -3.6194C433.048 -9.78888 427.739 -98.6531 424.952 -98.9234L327.278 -108.213L105.202 -129.365L-135.307 -152.245C-185.941 -157.063 -237.401 -165.107 -288.258 -166.794C-310.905 -167.546 -356.628 -160.507 -361.399 -132.291C-364.437 -114.329 -361.984 -93.3767 -362.453 -75.0739C-362.968 -55.6429 -363.038 -36.0886 -359.649 -16.9044C-357.612 -5.32924 -354.38 6.01088 -351.12 17.2922C-339.225 58.7571 -325.522 102.972 -291.752 129.618C-288.811 131.938 -285.74 134.088 -282.556 136.058Z" fill="url(#paint2_linear_16739_22072)"/>
</g>
</g>
<g filter="url(#filter3_d_16739_22072)">
<path d="M40.1034 55.0907C40.1011 52.7358 40.7947 50.4331 42.0964 48.4739C43.3981 46.5148 45.2495 44.9871 47.4164 44.0843C49.5832 43.1815 51.9681 42.9441 54.2694 43.4021C56.5707 43.8601 58.685 44.9929 60.3447 46.6573C62.0045 48.3217 63.1351 50.4428 63.5937 52.7523C64.0522 55.0618 63.8181 57.4559 62.9208 59.6318C62.0235 61.8077 60.5035 63.6676 58.5529 64.9761C56.6024 66.2847 54.309 66.9832 51.9629 66.9832C48.8215 66.977 45.8103 65.7224 43.5879 63.4938C41.3655 61.2652 40.1127 58.244 40.1034 55.0907Z" fill="url(#paint3_linear_16739_22072)"/>
<path d="M48.679 110.411C47.8897 110.414 47.1076 110.259 46.3781 109.957C45.6486 109.654 44.9862 109.209 44.4293 108.648C43.3146 107.512 42.6898 105.982 42.6898 104.388C42.6898 102.794 43.3146 101.264 44.4293 100.128L96.9015 47.4582C98.049 46.4482 99.5366 45.9146 101.062 45.9658C102.587 46.017 104.036 46.6492 105.114 47.734C106.192 48.8188 106.817 50.2747 106.864 51.806C106.911 53.3372 106.375 54.8289 105.366 55.978L52.9229 108.642C52.368 109.205 51.7069 109.651 50.9782 109.955C50.2496 110.258 49.468 110.413 48.679 110.411Z" fill="url(#paint4_linear_16739_22072)"/>
<path d="M104.347 112.984C110.894 112.984 116.201 107.657 116.201 101.086C116.201 94.5146 110.894 89.1875 104.347 89.1875C97.8007 89.1875 92.4937 94.5146 92.4937 101.086C92.4937 107.657 97.8007 112.984 104.347 112.984Z" fill="white"/>
</g>
<mask id="mask1_16739_22072" style="mask-type:luminance" maskUnits="userSpaceOnUse" x="42" y="45" width="65" height="66">
<path d="M48.679 110.411C47.8897 110.414 47.1076 110.259 46.3781 109.957C45.6486 109.654 44.9862 109.209 44.4293 108.648C43.3146 107.512 42.6898 105.982 42.6898 104.388C42.6898 102.794 43.3146 101.264 44.4293 100.128L96.9015 47.4582C98.049 46.4482 99.5366 45.9146 101.062 45.9658C102.587 46.017 104.036 46.6492 105.114 47.734C106.192 48.8188 106.817 50.2747 106.864 51.806C106.911 53.3372 106.375 54.8289 105.366 55.978L52.9229 108.642C52.368 109.205 51.7069 109.651 50.9782 109.955C50.2496 110.258 49.468 110.413 48.679 110.411Z" fill="white"/>
</mask>
<g mask="url(#mask1_16739_22072)">
<g filter="url(#filter4_d_16739_22072)">
<path d="M114.819 51.9063C112.828 50.3735 110.759 48.9457 108.62 47.6288C105.91 45.9484 102.246 44.503 99.758 46.5007C98.5873 47.4526 98.0019 48.9802 97.7034 50.4668C96.6497 55.608 97.6039 61.5073 94.718 66.0962C91.6273 71.0024 86.1366 74.1106 80.6692 75.4973C74.997 76.9604 68.6692 77.1308 64.0858 80.7854C59.198 84.6869 57.7463 91.3617 56.2244 97.4607C54.9775 102.432 53.0048 112.738 47.4907 114.812C42.2224 116.768 34.2497 115.217 29.1512 113.454C25.9728 112.332 22.8962 110.938 19.9551 109.288C17.9239 108.166 14.4527 106.838 12.8429 105.24L43.0419 135.206C43.0419 135.206 58.5775 119.694 59.479 118.795L97.1707 81.1909L112.753 65.6379C114.568 63.8282 116.458 62.0772 118.203 60.2028C120.363 57.8878 120.269 56.7244 117.893 54.521C116.915 53.5986 115.902 52.7348 114.819 51.9063Z" fill="url(#paint5_linear_16739_22072)"/>
</g>
</g>
</g>
<defs>
<filter id="filter0_d_16739_22072" x="-427.259" y="-59.1702" width="986.844" height="1012.12" filterUnits="userSpaceOnUse" color-interpolation-filters="sRGB">
<feFlood flood-opacity="0" result="BackgroundImageFix"/>
<feColorMatrix in="SourceAlpha" type="matrix" values="0 0 0 0 0 0 0 0 0 0 0 0 0 0 0 0 0 0 127 0" result="hardAlpha"/>
<feOffset dx="-12" dy="7.2"/>
<feGaussianBlur stdDeviation="7.2"/>
<feColorMatrix type="matrix" values="0 0 0 0 0 0 0 0 0 0 0 0 0 0 0 0 0 0 0.25 0"/>
<feBlend mode="normal" in2="BackgroundImageFix" result="effect1_dropShadow_16739_22072"/>
<feBlend mode="normal" in="SourceGraphic" in2="effect1_dropShadow_16739_22072" result="shape"/>
</filter>
<filter id="filter1_d_16739_22072" x="-395.286" y="-113.897" width="900.882" height="432.472" filterUnits="userSpaceOnUse" color-interpolation-filters="sRGB">
<feFlood flood-opacity="0" result="BackgroundImageFix"/>
<feColorMatrix in="SourceAlpha" type="matrix" values="0 0 0 0 0 0 0 0 0 0 0 0 0 0 0 0 0 0 127 0" result="hardAlpha"/>
<feOffset dx="-12" dy="7.2"/>
<feGaussianBlur stdDeviation="7.2"/>
<feColorMatrix type="matrix" values="0 0 0 0 0 0 0 0 0 0 0 0 0 0 0 0 0 0 0.25 0"/>
<feBlend mode="normal" in2="BackgroundImageFix" result="effect1_dropShadow_16739_22072"/>
<feBlend mode="normal" in="SourceGraphic" in2="effect1_dropShadow_16739_22072" result="shape"/>
</filter>
<filter id="filter2_d_16739_22072" x="-389.348" y="-174.047" width="839.806" height="425.756" filterUnits="userSpaceOnUse" color-interpolation-filters="sRGB">
<feFlood flood-opacity="0" result="BackgroundImageFix"/>
<feColorMatrix in="SourceAlpha" type="matrix" values="0 0 0 0 0 0 0 0 0 0 0 0 0 0 0 0 0 0 127 0" result="hardAlpha"/>
<feOffset dx="-12" dy="7.2"/>
<feGaussianBlur stdDeviation="7.2"/>
<feColorMatrix type="matrix" values="0 0 0 0 0 0 0 0 0 0 0 0 0 0 0 0 0 0 0.25 0"/>
<feBlend mode="normal" in2="BackgroundImageFix" result="effect1_dropShadow_16739_22072"/>
<feBlend mode="normal" in="SourceGraphic" in2="effect1_dropShadow_16739_22072" result="shape"/>
</filter>
<filter id="filter3_d_16739_22072" x="25.1034" y="32.1748" width="108.098" height="101.809" filterUnits="userSpaceOnUse" color-interpolation-filters="sRGB">
<feFlood flood-opacity="0" result="BackgroundImageFix"/>
<feColorMatrix in="SourceAlpha" type="matrix" values="0 0 0 0 0 0 0 0 0 0 0 0 0 0 0 0 0 0 127 0" result="hardAlpha"/>
<feOffset dx="1" dy="5"/>
<feGaussianBlur stdDeviation="8"/>
<feColorMatrix type="matrix" values="0 0 0 0 0 0 0 0 0 0 0 0 0 0 0 0 0 0 0.4 0"/>
<feBlend mode="normal" in2="BackgroundImageFix" result="effect1_dropShadow_16739_22072"/>
<feBlend mode="normal" in="SourceGraphic" in2="effect1_dropShadow_16739_22072" result="shape"/>
</filter>
<filter id="filter4_d_16739_22072" x="-0.847105" y="34.5408" width="130.909" height="113.675" filterUnits="userSpaceOnUse" color-interpolation-filters="sRGB">
<feFlood flood-opacity="0" result="BackgroundImageFix"/>
<feColorMatrix in="SourceAlpha" type="matrix" values="0 0 0 0 0 0 0 0 0 0 0 0 0 0 0 0 0 0 127 0" result="hardAlpha"/>
<feOffset dx="-1.69" dy="1.01"/>
<feGaussianBlur stdDeviation="6"/>
<feColorMatrix type="matrix" values="0 0 0 0 0 0 0 0 0 0 0 0 0 0 0 0 0 0 0.12 0"/>
<feBlend mode="normal" in2="BackgroundImageFix" result="effect1_dropShadow_16739_22072"/>
<feBlend mode="normal" in="SourceGraphic" in2="effect1_dropShadow_16739_22072" result="shape"/>
</filter>
<linearGradient id="paint0_linear_16739_22072" x1="-400.859" y1="439.691" x2="557.169" y2="439.691" gradientUnits="userSpaceOnUse">
<stop offset="0.42" stop-color="#499BEF"/>
<stop offset="0.6" stop-color="#5AE7EF"/>
</linearGradient>
<linearGradient id="paint1_linear_16739_22072" x1="-358.566" y1="10.5471" x2="507.117" y2="116.509" gradientUnits="userSpaceOnUse">
<stop offset="0.42" stop-color="#5F66FB"/>
<stop offset="0.6" stop-color="#A46BFA"/>
</linearGradient>
<linearGradient id="paint2_linear_16739_22072" x1="7.15902" y1="23.6909" x2="814.123" y2="104.868" gradientUnits="userSpaceOnUse">
<stop stop-color="#2232ED"/>
<stop offset="0.19" stop-color="#5D56F9"/>
</linearGradient>
<linearGradient id="paint3_linear_16739_22072" x1="42.7317" y1="48.1809" x2="60.3505" y2="63.6858" gradientUnits="userSpaceOnUse">
<stop stop-color="#E0E3FF"/>
<stop offset="1" stop-color="white"/>
</linearGradient>
<linearGradient id="paint4_linear_16739_22072" x1="67.3171" y1="72.5652" x2="82.0084" y2="87.7868" gradientUnits="userSpaceOnUse">
<stop stop-color="white"/>
<stop offset="1" stop-color="#E2E0FF"/>
<stop offset="1" stop-color="#E2E0FF"/>
</linearGradient>
<linearGradient id="paint5_linear_16739_22072" x1="76.9793" y1="91.5038" x2="72.0021" y2="86.5477" gradientUnits="userSpaceOnUse">
<stop stop-color="white"/>
<stop offset="1" stop-color="#FAFBFF"/>
</linearGradient>
<clipPath id="clip0_16739_22072">
<rect width="156" height="156" fill="white"/>
</clipPath>
</defs>
</svg>
