<svg width="156" height="156" viewBox="0 0 156 156" fill="none" xmlns="http://www.w3.org/2000/svg">
<g clip-path="url(#clip0_16739_22150)">
<mask id="mask0_16739_22150" style="mask-type:luminance" maskUnits="userSpaceOnUse" x="0" y="-1" width="155" height="156">
<path d="M77.2481 154.426C119.908 154.426 154.49 119.843 154.49 77.1836C154.49 34.5239 119.908 -0.0585938 77.2481 -0.0585938C34.5884 -0.0585938 0.00585938 34.5239 0.00585938 77.1836C0.00585938 119.843 34.5884 154.426 77.2481 154.426Z" fill="white"/>
</mask>
<g mask="url(#mask0_16739_22150)">
<g filter="url(#filter0_d_16739_22150)">
<path d="M-221.902 167.317C-204.347 187.114 -184.55 204.868 -160.178 214.488C-128.193 227.11 -86.5113 221.381 -67.1364 192.948C-61.3842 184.492 -57.9141 174.632 -52.0098 166.287C-31.9619 137.913 10.3282 135.174 42.9865 147.082C75.6447 158.99 103.06 181.894 134.355 197.015C153.882 206.447 176.329 212.814 198.173 210.473C221.767 207.957 238.854 189.636 257.187 175.896C274.608 162.841 293.538 149.23 315.295 148.51C334.605 147.872 353.19 157.966 366.204 172.262C379.218 186.558 387.206 204.71 392.999 223.142C414.393 291.244 408.178 363.635 416.546 433.68C420.49 466.648 431.006 497.516 438.443 529.297C446.699 564.055 461.409 596.954 481.81 626.282C498.247 649.753 518.793 670.135 535.119 693.682C563.681 734.889 588.322 794.489 597.006 843.748C604.865 888.332 572.476 934.145 529.577 948.605C491.541 961.426 459.298 944.731 421.397 950.448C399.436 953.754 378.095 960.846 356.028 963.129C328.929 965.932 296.862 959.618 270.008 955.369C235.121 949.857 197.266 927.603 174.187 900.867C152.278 875.476 121.949 857.564 86.1718 862.743C75.7559 864.247 65.849 868.115 55.983 871.79C-1.05331 893.049 -132.927 910.604 -167.727 840.009C-191.888 790.978 -151.213 760.76 -125.437 727.99C-100.005 695.66 -116.004 636.704 -143.126 610.541C-181.999 572.997 -227.566 596.275 -256.198 633.363C-311.76 705.339 -319.578 810.856 -275.228 890.252C-260.745 916.175 -239.135 940.646 -210.163 947.124C-186.792 952.356 -162.718 945.111 -139.194 940.623C-43.7823 922.418 55.3452 949.763 151.488 935.942C181.42 931.635 211.017 923.349 241.253 923.776C275.556 924.256 303.644 935.871 334.295 948.657C364.138 961.127 391.472 947.867 421.602 939.745C443.787 933.764 466.512 930.003 489.441 928.516C500.266 927.814 511.677 927.474 520.999 921.956C535.095 913.623 540.514 895.945 542.199 879.654C545.611 846.756 537.939 814.355 538.542 781.539C538.952 759.016 546.939 742.45 552.978 721.513C566.045 676.203 535.329 612.601 594.285 590.283C615.644 582.202 629.541 560.539 639.267 540.543C659.485 498.997 659.251 447.139 635.13 407.71C612.794 371.213 590.277 345.776 586.707 301.327C583.161 257.146 579.617 212.968 576.075 168.792C571.975 117.664 567.879 66.5377 563.786 15.4135L-274.76 -15.4893C-274.21 -15.5185 -267.153 70.6241 -265.801 78.5824C-261.307 105.371 -254.929 126.672 -237.666 148.317C-232.651 154.73 -227.391 161.126 -221.902 167.317Z" fill="url(#paint0_linear_16739_22150)"/>
</g>
<g filter="url(#filter1_d_16739_22150)">
<path d="M-232.171 131.177C-220.088 142.453 -203.539 150.651 -190.145 154.285C-162.103 161.892 -130.112 156.041 -107.343 137.824C-86.8624 121.44 -73.9477 97.4479 -50.9565 83.7666C-1.93692 54.6194 45.5436 64.146 84.9313 102.943C123.705 141.137 178.166 194.188 233.669 153.033C250.118 140.838 262.618 124.219 275.439 108.256C286.504 94.4869 298.055 76.7154 314.92 69.5178C335.184 60.869 353.406 77.125 365.83 92.1345C415.306 151.88 417.746 241.311 470.077 298.57C487.439 317.571 511.349 332.51 537.079 332.03C550.052 331.802 562.61 327.717 574.94 323.674C582.196 321.292 589.738 318.741 595.11 313.322C606.544 301.777 593.94 283.104 592.77 269.253C591.108 249.867 589.656 230.457 588.088 211.064C584.893 171.273 581.7 131.481 578.509 91.6898C577.895 84.03 570.393 -38.99 568.017 -39.0777L-270.529 -69.9805C-275.07 -61.6067 -267.088 -32.1084 -266.187 -22.2015C-264.906 -8.11063 -264.473 6.0797 -260.564 19.638C-252.371 48.1416 -254.519 78.7868 -247.69 106.828C-245.519 115.904 -239.714 124.143 -232.171 131.177Z" fill="url(#paint1_linear_16739_22150)"/>
</g>
<g filter="url(#filter2_d_16739_22150)">
<path d="M-185.615 171.782C-171.747 180.337 -155.737 185.451 -139.469 185.65C-119.474 185.902 -99.2387 178.418 -85.1127 164.257C-77.3183 156.445 -71.531 146.9 -65.8022 137.462C-53.0455 116.355 -41.3304 86.9032 -24.0914 69.3306C-9.94788 54.8769 12.2417 42.6411 32.0672 38.738C72.2215 30.8441 103.54 45.643 132.377 70.6296C160.289 94.7971 210.497 132.868 248.697 108.911C259.557 102.1 266.837 90.9408 273.367 79.9046C279.898 68.8683 286.241 57.3522 295.984 49.0369C346.583 5.93344 400.378 79.6471 420.256 118.672C435.307 148.241 445.933 179.822 459.544 210.075C468.129 229.14 478.697 248.556 496.41 259.662C503.338 264.004 511.829 266.936 519.682 264.654C533.814 260.558 538.244 243.073 540.303 228.496C544.897 195.967 546.108 169.98 543.118 137.877C539.841 102.673 533.521 67.8794 530.332 32.6756C529.747 26.5314 524.439 -61.9695 521.654 -62.2386L424.013 -71.4902L202.012 -92.5562L-38.4163 -115.319C-89.0333 -120.118 -140.475 -128.129 -191.315 -129.808C-213.955 -130.557 -259.663 -123.547 -264.432 -95.4469C-267.469 -77.5584 -265.017 -56.6913 -265.485 -38.4633C-266 -19.1118 -266.07 0.362656 -262.682 19.4684C-260.646 30.9962 -257.416 42.29 -254.156 53.5252C-242.26 94.7971 -228.567 138.831 -194.808 165.368C-191.868 167.678 -188.798 169.82 -185.615 171.782Z" fill="url(#paint2_linear_16739_22150)"/>
</g>
</g>
<g filter="url(#filter3_d_16739_22150)">
<path d="M117.157 92.1403C116.891 92.7659 116.512 93.3372 116.039 93.8256L95.3415 114.517C94.3545 115.5 93.0184 116.052 91.6256 116.052C90.2329 116.052 88.8968 115.5 87.9098 114.517C86.9254 113.53 86.3725 112.193 86.3725 110.798C86.3725 109.404 86.9254 108.067 87.9098 107.08L99.6132 95.3763H42.1731C40.7763 95.3763 39.4367 94.8214 38.4491 93.8338C37.4614 92.8461 36.9066 91.5065 36.9066 90.1098C36.9066 88.713 37.4614 87.3734 38.4491 86.3858C39.4367 85.3981 40.7763 84.8433 42.1731 84.8433H112.317C113.017 84.847 113.71 84.9902 114.354 85.2646C115.645 85.8204 116.674 86.8511 117.227 88.1436C117.729 89.4333 117.704 90.8691 117.157 92.1403Z" fill="url(#paint3_linear_16739_22150)"/>
<path d="M112.352 70.6766H42.2141C41.514 70.6729 40.8217 70.5296 40.1777 70.2553C38.8863 69.6994 37.8577 68.6688 37.3045 67.3762C37.0267 66.7466 36.8832 66.066 36.8832 65.3779C36.8832 64.6897 37.0267 64.0091 37.3045 63.3795C37.6151 62.7665 38.0089 62.1994 38.4748 61.6942L59.1722 41.0027C60.1768 40.1127 61.4832 39.6399 62.8247 39.6807C64.1661 39.7215 65.4414 40.2729 66.39 41.2222C67.3386 42.1716 67.889 43.4473 67.9288 44.7888C67.9685 46.1303 67.4946 47.4363 66.6039 48.4402L54.9005 60.1435H112.352C113.749 60.1435 115.089 60.6984 116.076 61.6861C117.064 62.6737 117.619 64.0133 117.619 65.4101C117.619 66.8068 117.064 68.1464 116.076 69.134C115.089 70.1217 113.749 70.6766 112.352 70.6766Z" fill="url(#paint4_linear_16739_22150)"/>
</g>
<mask id="mask1_16739_22150" style="mask-type:luminance" maskUnits="userSpaceOnUse" x="36" y="84" width="82" height="33">
<path d="M117.192 92.1408C116.926 92.7679 116.545 93.3395 116.068 93.8261L95.3824 114.518C94.3954 115.5 93.0593 116.052 91.6666 116.052C90.2738 116.052 88.9378 115.5 87.9508 114.518C86.9663 113.53 86.4135 112.193 86.4135 110.799C86.4135 109.405 86.9663 108.067 87.9508 107.08L99.6541 95.3768H42.2023C40.8055 95.3768 39.466 94.8219 38.4783 93.8342C37.4907 92.8466 36.9358 91.507 36.9358 90.1103C36.9358 88.7135 37.4907 87.3739 38.4783 86.3863C39.466 85.3986 40.8055 84.8438 42.2023 84.8438H112.352C113.052 84.8474 113.745 84.9907 114.389 85.2651C115.681 85.8194 116.71 86.8505 117.262 88.1441C117.765 89.4338 117.739 90.8696 117.192 92.1408Z" fill="white"/>
</mask>
<g mask="url(#mask1_16739_22150)">
<g filter="url(#filter4_d_16739_22150)">
<path d="M151.342 62.5256C146.479 58.1485 141.336 54.0582 136.163 50.2371C129.539 45.3158 120.597 40.6754 114.629 44.795C111.767 46.7436 110.462 50.3248 109.766 53.8358C107.367 66.0659 109.871 80.7536 103.013 91.0759C95.675 102.124 82.4619 108.046 69.1844 109.854C55.4681 111.715 40.1191 110.205 29.1121 117.754C17.3736 125.8 14.0732 141.699 10.5681 156.082C7.70077 167.838 3.24179 192.48 -10.0649 195.798C-22.8099 198.981 -42.179 192.796 -54.6021 186.95C-62.3914 183.176 -69.8783 178.807 -76.9965 173.883C-81.9529 170.536 -90.4202 166.241 -94.376 161.858L-20.1649 244.144C-20.1123 244.203 17.0401 210.989 19.1993 209.034L109.426 128.632L146.766 95.3828C151.096 91.5207 155.643 87.8166 159.809 83.773C164.971 78.764 164.719 75.9084 158.873 69.8109C156.468 67.2947 153.946 64.8663 151.342 62.5256Z" fill="url(#paint5_linear_16739_22150)"/>
</g>
</g>
<mask id="mask2_16739_22150" style="mask-type:luminance" maskUnits="userSpaceOnUse" x="36" y="39" width="82" height="32">
<path d="M37.3103 63.397C37.5762 62.77 37.9573 62.1983 38.4339 61.7118L59.102 41.0202C60.0892 40.0357 61.4265 39.4829 62.8207 39.4829C64.2149 39.4829 65.5523 40.0357 66.5395 41.0202C67.5239 42.0074 68.0768 43.3447 68.0768 44.7389C68.0768 46.1331 67.5239 47.4705 66.5395 48.4577L54.8361 60.1611H112.288C112.98 60.1611 113.664 60.2973 114.303 60.5619C114.942 60.8266 115.523 61.2145 116.012 61.7036C116.501 62.1926 116.889 62.7732 117.154 63.4122C117.418 64.0511 117.554 64.736 117.554 65.4276C117.554 66.1192 117.418 66.804 117.154 67.443C116.889 68.0819 116.501 68.6625 116.012 69.1516C115.523 69.6406 114.942 70.0285 114.303 70.2932C113.664 70.5579 112.98 70.6941 112.288 70.6941H42.1321C41.434 70.6896 40.7438 70.5464 40.1016 70.2728C38.8086 69.7172 37.7782 68.6867 37.2226 67.3937C36.7254 66.1017 36.7569 64.666 37.3103 63.397Z" fill="white"/>
</mask>
<g mask="url(#mask2_16739_22150)">
<g filter="url(#filter5_d_16739_22150)">
<path d="M0.819271 95.3824C5.68202 99.7594 10.8256 103.85 15.9985 107.671C22.6168 112.586 31.564 117.227 37.5269 113.107C40.3708 111.141 41.6991 107.589 42.3955 104.043C44.7888 91.8187 42.2901 77.1251 49.1425 66.8028C56.4863 55.7548 69.6994 49.8329 82.9769 48.0247C96.6932 46.1639 112.042 47.6736 123.049 40.1249C134.788 32.073 138.1 16.174 141.611 1.79057C144.478 -9.96546 148.937 -34.6069 162.244 -37.9248C174.989 -41.1081 194.358 -34.9229 206.781 -29.0771C214.57 -25.303 222.057 -20.9345 229.175 -16.0103C234.132 -12.6631 242.599 -8.36796 246.555 -3.98505L172.326 -86.2655C172.274 -86.3241 135.121 -53.1099 132.962 -51.1847L42.7173 29.2584L5.39529 62.5076C1.05919 66.3697 -3.48172 70.0738 -7.64811 74.1232C-12.8093 79.1264 -12.5577 81.982 -6.7177 88.0795C-4.3068 90.5898 -1.75547 93.0417 0.819271 95.3824Z" fill="url(#paint6_linear_16739_22150)"/>
</g>
</g>
</g>
<defs>
<filter id="filter0_d_16739_22150" x="-330.255" y="-22.6893" width="986.521" height="1008.11" filterUnits="userSpaceOnUse" color-interpolation-filters="sRGB">
<feFlood flood-opacity="0" result="BackgroundImageFix"/>
<feColorMatrix in="SourceAlpha" type="matrix" values="0 0 0 0 0 0 0 0 0 0 0 0 0 0 0 0 0 0 127 0" result="hardAlpha"/>
<feOffset dx="-12" dy="7.2"/>
<feGaussianBlur stdDeviation="7.2"/>
<feColorMatrix type="matrix" values="0 0 0 0 0 0 0 0 0 0 0 0 0 0 0 0 0 0 0.25 0"/>
<feBlend mode="normal" in2="BackgroundImageFix" result="effect1_dropShadow_16739_22150"/>
<feBlend mode="normal" in="SourceGraphic" in2="effect1_dropShadow_16739_22150" result="shape"/>
</filter>
<filter id="filter1_d_16739_22150" x="-298.317" y="-77.1805" width="900.587" height="430.822" filterUnits="userSpaceOnUse" color-interpolation-filters="sRGB">
<feFlood flood-opacity="0" result="BackgroundImageFix"/>
<feColorMatrix in="SourceAlpha" type="matrix" values="0 0 0 0 0 0 0 0 0 0 0 0 0 0 0 0 0 0 127 0" result="hardAlpha"/>
<feOffset dx="-12" dy="7.2"/>
<feGaussianBlur stdDeviation="7.2"/>
<feColorMatrix type="matrix" values="0 0 0 0 0 0 0 0 0 0 0 0 0 0 0 0 0 0 0.25 0"/>
<feBlend mode="normal" in2="BackgroundImageFix" result="effect1_dropShadow_16739_22150"/>
<feBlend mode="normal" in="SourceGraphic" in2="effect1_dropShadow_16739_22150" result="shape"/>
</filter>
<filter id="filter2_d_16739_22150" x="-292.38" y="-137.061" width="839.533" height="424.11" filterUnits="userSpaceOnUse" color-interpolation-filters="sRGB">
<feFlood flood-opacity="0" result="BackgroundImageFix"/>
<feColorMatrix in="SourceAlpha" type="matrix" values="0 0 0 0 0 0 0 0 0 0 0 0 0 0 0 0 0 0 127 0" result="hardAlpha"/>
<feOffset dx="-12" dy="7.2"/>
<feGaussianBlur stdDeviation="7.2"/>
<feColorMatrix type="matrix" values="0 0 0 0 0 0 0 0 0 0 0 0 0 0 0 0 0 0 0.25 0"/>
<feBlend mode="normal" in2="BackgroundImageFix" result="effect1_dropShadow_16739_22150"/>
<feBlend mode="normal" in="SourceGraphic" in2="effect1_dropShadow_16739_22150" result="shape"/>
</filter>
<filter id="filter3_d_16739_22150" x="21.8832" y="28.6782" width="112.736" height="108.374" filterUnits="userSpaceOnUse" color-interpolation-filters="sRGB">
<feFlood flood-opacity="0" result="BackgroundImageFix"/>
<feColorMatrix in="SourceAlpha" type="matrix" values="0 0 0 0 0 0 0 0 0 0 0 0 0 0 0 0 0 0 127 0" result="hardAlpha"/>
<feOffset dx="1" dy="5"/>
<feGaussianBlur stdDeviation="8"/>
<feColorMatrix type="matrix" values="0 0 0 0 0 0 0 0 0 0 0 0 0 0 0 0 0 0 0.4 0"/>
<feBlend mode="normal" in2="BackgroundImageFix" result="effect1_dropShadow_16739_22150"/>
<feBlend mode="normal" in="SourceGraphic" in2="effect1_dropShadow_16739_22150" result="shape"/>
</filter>
<filter id="filter4_d_16739_22150" x="-114.486" y="29.677" width="289.857" height="232.938" filterUnits="userSpaceOnUse" color-interpolation-filters="sRGB">
<feFlood flood-opacity="0" result="BackgroundImageFix"/>
<feColorMatrix in="SourceAlpha" type="matrix" values="0 0 0 0 0 0 0 0 0 0 0 0 0 0 0 0 0 0 127 0" result="hardAlpha"/>
<feOffset dx="-4.11" dy="2.47"/>
<feGaussianBlur stdDeviation="8"/>
<feColorMatrix type="matrix" values="0 0 0 0 0 0 0 0 0 0 0 0 0 0 0 0 0 0 0.08 0"/>
<feBlend mode="normal" in2="BackgroundImageFix" result="effect1_dropShadow_16739_22150"/>
<feBlend mode="normal" in="SourceGraphic" in2="effect1_dropShadow_16739_22150" result="shape"/>
</filter>
<filter id="filter5_d_16739_22150" x="-25.3203" y="-99.7956" width="289.875" height="232.961" filterUnits="userSpaceOnUse" color-interpolation-filters="sRGB">
<feFlood flood-opacity="0" result="BackgroundImageFix"/>
<feColorMatrix in="SourceAlpha" type="matrix" values="0 0 0 0 0 0 0 0 0 0 0 0 0 0 0 0 0 0 127 0" result="hardAlpha"/>
<feOffset dx="2" dy="2.47"/>
<feGaussianBlur stdDeviation="8"/>
<feColorMatrix type="matrix" values="0 0 0 0 0 0 0 0 0 0 0 0 0 0 0 0 0 0 0.08 0"/>
<feBlend mode="normal" in2="BackgroundImageFix" result="effect1_dropShadow_16739_22150"/>
<feBlend mode="normal" in="SourceGraphic" in2="effect1_dropShadow_16739_22150" result="shape"/>
</filter>
<linearGradient id="paint0_linear_16739_22150" x1="-365.256" y1="474.174" x2="592.448" y2="474.174" gradientUnits="userSpaceOnUse">
<stop offset="0.4" stop-color="#EE3F74"/>
<stop offset="0.58" stop-color="#FA7586"/>
</linearGradient>
<linearGradient id="paint1_linear_16739_22150" x1="-355.577" y1="35.2386" x2="509.717" y2="141.552" gradientUnits="userSpaceOnUse">
<stop offset="0.41" stop-color="#F66192"/>
<stop offset="0.62" stop-color="#FFC082"/>
</linearGradient>
<linearGradient id="paint2_linear_16739_22150" x1="17.6604" y1="19.0822" x2="803.705" y2="217.636" gradientUnits="userSpaceOnUse">
<stop stop-color="#FCA339"/>
<stop offset="0.19" stop-color="#FBFD72"/>
</linearGradient>
<linearGradient id="paint3_linear_16739_22150" x1="114.693" y1="128.152" x2="52.3727" y2="84.5565" gradientUnits="userSpaceOnUse">
<stop stop-color="#FFE0EA"/>
<stop offset="1" stop-color="white"/>
</linearGradient>
<linearGradient id="paint4_linear_16739_22150" x1="98.0158" y1="71.9756" x2="42.7173" y2="38.0359" gradientUnits="userSpaceOnUse">
<stop stop-color="white"/>
<stop offset="1" stop-color="#FFE0EA"/>
</linearGradient>
<linearGradient id="paint5_linear_16739_22150" x1="65.7996" y1="151.859" x2="53.5794" y2="138.199" gradientUnits="userSpaceOnUse">
<stop stop-color="white"/>
<stop offset="1" stop-color="#FAFBFF"/>
</linearGradient>
<linearGradient id="paint6_linear_16739_22150" x1="102.404" y1="16.6363" x2="81.3618" y2="1.49213" gradientUnits="userSpaceOnUse">
<stop stop-color="white"/>
<stop offset="0.84" stop-color="white"/>
</linearGradient>
<clipPath id="clip0_16739_22150">
<rect width="156" height="156" fill="white"/>
</clipPath>
</defs>
</svg>
